<?xml version="1.0" encoding="UTF-8"?>
<svg version="1.1" xmlns="http://www.w3.org/2000/svg" width="74" height="99">
<path d="M0 0 C24.42 0 48.84 0 74 0 C74 32.67 74 65.34 74 99 C49.58 99 25.16 99 0 99 C0 66.33 0 33.66 0 0 Z " fill="#E9973C" transform="translate(0,0)"/>
<path d="M0 0 C24.42 0 48.84 0 74 0 C74 32.67 74 65.34 74 99 C49.58 99 25.16 99 0 99 C0 66.33 0 33.66 0 0 Z M6 10 C5.9312087 17.63583408 5.87144913 25.2705973 5.83520508 32.90649414 C5.82009937 35.50516397 5.79961366 38.10380823 5.77368164 40.70239258 C5.73737757 44.43316958 5.72029142 48.16361013 5.70703125 51.89453125 C5.69154739 53.06023148 5.67606354 54.2259317 5.66011047 55.42695618 C5.65988388 56.50785019 5.65965729 57.5887442 5.65942383 58.70239258 C5.65276199 59.65503494 5.64610016 60.60767731 5.63923645 61.58918762 C5.81044857 64.05649528 5.81044857 64.05649528 7.39628601 65.83110046 C8.93862449 67.1963386 8.93862449 67.1963386 11 67 C10.96519531 68.00160156 10.93039063 69.00320312 10.89453125 70.03515625 C10.41875254 79.98411083 10.41875254 79.98411083 14 89 C17.33267522 92.09462699 20.03459496 93.27683436 24.5 93.5625 C29.50526405 93.33460433 31.62773371 91.61901748 35 88 C37.10682826 84.65256556 37.3699091 81.66139374 37.625 77.75 C37.69976562 76.67234375 37.77453125 75.5946875 37.8515625 74.484375 C37.92503906 73.25460938 37.92503906 73.25460938 38 72 C38.5775 72.94875 39.155 73.8975 39.75 74.875 C41.95872222 77.94266974 42.64417171 78.71208752 46 80 C49.39802478 80.52489814 52.60406578 80.55410235 56 80 C59.17281852 77.83200792 59.17281852 77.83200792 61 75 C61 74.34 61 73.68 61 73 C61.66 73 62.32 73 63 73 C63 58.15 63 43.3 63 28 C60.69 27.34 58.38 26.68 56 26 C50.70655586 21.76039943 49.07350302 16.44101812 48 10 C34.14 10 20.28 10 6 10 Z " fill="#FDFDFA" transform="translate(0,0)"/>
<path d="M0 0 C4.29 0 8.58 0 13 0 C11.66415278 4.00754167 9.23106172 5.37476236 6 8 C5.67 8.66 5.34 9.32 5 10 C4.34 10 3.68 10 3 10 C2.67 11.32 2.34 12.64 2 14 C2.66 13.67 3.32 13.34 4 13 C5.6674606 12.91573906 7.33825187 12.89274857 9.0078125 12.90234375 C9.99394531 12.90556641 10.98007812 12.90878906 11.99609375 12.91210938 C13.02863281 12.92048828 14.06117187 12.92886719 15.125 12.9375 C16.68541016 12.94426758 16.68541016 12.94426758 18.27734375 12.95117188 C20.85158687 12.96298033 23.42580053 12.98091615 26 13 C26 9.04 26 5.08 26 1 C33.92 1 41.84 1 50 1 C48.09442006 4.81115988 46.46226566 6.79515686 43.5 9.765625 C42.613125 10.65507813 41.72625 11.54453125 40.8125 12.4609375 C39.4203125 13.84152344 39.4203125 13.84152344 38 15.25 C36.6078125 16.65378906 36.6078125 16.65378906 35.1875 18.0859375 C34.300625 18.97023438 33.41375 19.85453125 32.5 20.765625 C31.6853125 21.57805664 30.870625 22.39048828 30.03125 23.22753906 C28 25 28 25 26 25 C26 21.7 26 18.4 26 15 C24.88625 15.9075 23.7725 16.815 22.625 17.75 C21.99851562 18.26046875 21.37203125 18.7709375 20.7265625 19.296875 C18.88858983 20.90764409 18.88858983 20.90764409 18.0234375 23.140625 C17.51683594 24.06101562 17.51683594 24.06101562 17 25 C15.68 25.33 14.36 25.66 13 26 C13 22.37 13 18.74 13 15 C12.34 15 11.68 15 11 15 C11 15.66 11 16.32 11 17 C6.52941176 21 6.52941176 21 4 21 C3.14701624 24.67387495 2.89210529 28.0447393 2.9375 31.8125 C2.94652344 32.78832031 2.95554687 33.76414063 2.96484375 34.76953125 C2.97644531 35.50558594 2.98804688 36.24164063 3 37 C3.66 37 4.32 37 5 37 C5 35.02 5 33.04 5 31 C5.92232422 30.94392578 5.92232422 30.94392578 6.86328125 30.88671875 C8.07564453 30.78810547 8.07564453 30.78810547 9.3125 30.6875 C10.11300781 30.62949219 10.91351563 30.57148437 11.73828125 30.51171875 C14.38742483 29.9123443 15.20473841 28.96373189 17 27 C17.66 27 18.32 27 19 27 C19.33 25.35 19.66 23.7 20 22 C20.99 22 21.98 22 23 22 C23 22.99 23 23.98 23 25 C23.66 25 24.32 25 25 25 C26.54958148 28.09916296 26.26681073 31.35071849 26.3125 34.75 C26.34150391 35.45382813 26.37050781 36.15765625 26.40039062 36.8828125 C26.47383279 42.9615642 24.38943588 46.34507125 20.3125 50.875 C16.58726141 52.68727823 13.05403057 52.61936578 9 52 C4.40127651 49.87096135 2.48309724 47.70649297 0.58886719 43.03491211 C-0.46351068 39.39827468 -0.31296869 35.81690929 -0.1875 32.0625 C-0.17396484 31.28326172 -0.16042969 30.50402344 -0.14648438 29.70117188 C-0.11150224 27.80047596 -0.05770959 25.90014166 0 24 C-0.66 23.67 -1.32 23.34 -2 23 C-1.34 23 -0.68 23 0 23 C0 15.41 0 7.82 0 0 Z " fill="#F08124" transform="translate(11,41)"/>
<path d="M0 0 C0.85098267 0.01694412 1.70196533 0.03388824 2.57873535 0.05134583 C3.49441284 0.08040512 4.41009033 0.10946442 5.35351562 0.1394043 C6.29658569 0.16205856 7.23965576 0.18471283 8.21130371 0.20805359 C10.20528769 0.25801042 12.19915155 0.31297506 14.19287109 0.37255859 C17.24753423 0.46325986 20.302269 0.53799853 23.35742188 0.61010742 C25.29364454 0.66059956 27.22984374 0.71200128 29.16601562 0.7644043 C30.08169312 0.7873909 30.99737061 0.8103775 31.9407959 0.83406067 C33.2172699 0.87366158 33.2172699 0.87366158 34.51953125 0.9140625 C35.26771118 0.93563919 36.01589111 0.95721588 36.78674316 0.97944641 C38.75976563 1.15112305 38.75976563 1.15112305 41.75976562 2.15112305 C43.81870183 2.37438119 45.88210216 2.55818064 47.94726562 2.71362305 C49.03394531 2.79741211 50.120625 2.88120117 51.24023438 2.9675293 C52.48740234 3.0584082 52.48740234 3.0584082 53.75976562 3.15112305 C53.93206315 5.69251147 54.09760095 8.23408225 54.25976562 10.77612305 C54.30746094 11.46963867 54.35515625 12.1631543 54.40429688 12.87768555 C55.16584242 25.06241431 54.78826046 37.31543985 54.49731445 49.51391602 C54.46355505 51.03984104 54.43569279 52.56590643 54.41333008 54.09204102 C54.379856 56.33361747 54.32768785 58.57407798 54.27148438 60.81518555 C54.24530029 62.1295459 54.21911621 63.44390625 54.19213867 64.7980957 C53.74686396 68.25117468 53.12560985 69.6668489 50.75976562 72.15112305 C49.43976562 71.82112305 48.11976562 71.49112305 46.75976562 71.15112305 C48.04039047 69.44362325 49.37744119 67.77738708 50.75976562 66.15112305 C51.41976562 66.15112305 52.07976563 66.15112305 52.75976562 66.15112305 C52.75976562 51.30112305 52.75976562 36.45112305 52.75976562 21.15112305 C50.77976563 21.15112305 48.79976562 21.15112305 46.75976562 21.15112305 C44.71289062 19.54174805 44.71289062 19.54174805 43.00976562 17.40112305 C42.43742187 16.7050293 41.86507812 16.00893555 41.27539062 15.29174805 C38.01268874 10.68360208 37.75976562 9.25088893 37.75976562 3.15112305 C23.89976563 3.15112305 10.03976562 3.15112305 -4.24023438 3.15112305 C-4.18927397 10.78753925 -4.1264641 18.42188485 -4.03271484 26.05761719 C-4.00445368 28.65618246 -3.98326493 31.25483453 -3.96923828 33.85351562 C-3.94788072 37.58468224 -3.90126492 41.3147996 -3.84960938 45.0456543 C-3.84838074 46.21135452 -3.8471521 47.37705475 -3.84588623 48.57807922 C-3.8261676 49.65897324 -3.80644897 50.73986725 -3.78613281 51.85351562 C-3.77725037 52.80615799 -3.76836792 53.75880035 -3.75921631 54.74031067 C-3.08638054 57.86581601 -1.80342759 58.38698427 0.75976562 60.15112305 C1.26367188 63.4440918 1.26367188 63.4440918 1.32226562 67.33862305 C1.50741424 73.19649985 2.25985637 77.82522942 4.75976562 83.15112305 C3.43976562 82.82112305 2.11976562 82.49112305 0.75976562 82.15112305 C0.59541016 80.28907227 0.59541016 80.28907227 0.42773438 78.3894043 C0.26822675 76.74741407 0.10803443 75.10549027 -0.05273438 73.46362305 C-0.12298828 72.64700195 -0.19324219 71.83038086 -0.265625 70.98901367 C-0.73386198 66.36283229 -1.28453597 62.92578071 -4.24023438 59.15112305 C-4.90023438 58.82112305 -5.56023438 58.49112305 -6.24023438 58.15112305 C-6.44026102 50.88455543 -6.62400052 43.6177699 -6.78682232 36.35026741 C-6.86293811 32.97584053 -6.94470763 29.60174653 -7.03930664 26.2277832 C-7.14522191 22.35085768 -7.23178234 18.47391752 -7.31445312 14.59643555 C-7.35181076 13.38182648 -7.3891684 12.16721741 -7.42765808 10.915802 C-7.44790543 9.79479095 -7.46815277 8.67377991 -7.48901367 7.51879883 C-7.5134404 6.52840607 -7.53786713 5.53801331 -7.56303406 4.51760864 C-7.45651016 3.7366684 -7.34998627 2.95572815 -7.24023438 2.15112305 C-4.11216804 0.06574549 -3.52919326 -0.09051954 0 0 Z " fill="#FBF6DD" transform="translate(10.240234375,6.848876953125)"/>
<path d="M0 0 C3.3 0 6.6 0 10 0 C10 1.65 10 3.3 10 5 C10.66 5 11.32 5 12 5 C13.18359375 6.64453125 13.18359375 6.64453125 14.4375 8.8125 C16.73818244 12.81467164 16.73818244 12.81467164 20 16 C21.98 16.33 23.96 16.66 26 17 C26 21.29 26 25.58 26 30 C18.08 30 10.16 30 2 30 C2.33 29.34 2.66 28.68 3 28 C2.86188065 23.66004941 2.86188065 23.66004941 1 20 C-1.04680286 13.06049714 -1.0169768 7.11883761 0 0 Z " fill="#F1A633" transform="translate(37,11)"/>
<path d="M0 0 C0.70253906 -0.00386719 1.40507812 -0.00773438 2.12890625 -0.01171875 C5.62147929 -0.00511653 8.45875157 0.27093789 11.875 1.125 C11.215 4.095 10.555 7.065 9.875 10.125 C9.545 9.135 9.215 8.145 8.875 7.125 C9.205 6.465 9.535 5.805 9.875 5.125 C8.885 5.125 7.895 5.125 6.875 5.125 C7.205 6.115 7.535 7.105 7.875 8.125 C5.60479256 8.31993195 3.33379711 8.50570418 1.0625 8.6875 C-0.20207031 8.79191406 -1.46664063 8.89632813 -2.76953125 9.00390625 C-6.125 9.125 -6.125 9.125 -9.125 8.125 C-8.795 14.065 -8.465 20.005 -8.125 26.125 C-6.145 26.125 -4.165 26.125 -2.125 26.125 C-2.125 26.785 -2.125 27.445 -2.125 28.125 C-4.08264383 28.31956705 -6.04115321 28.50544247 -8 28.6875 C-9.63582031 28.84412109 -9.63582031 28.84412109 -11.3046875 29.00390625 C-14.125 29.125 -14.125 29.125 -16.125 28.125 C-16.18297565 24.18756167 -16.21858789 20.25023281 -16.25 16.3125 C-16.26675781 15.19294922 -16.28351562 14.07339844 -16.30078125 12.91992188 C-16.30722656 11.84677734 -16.31367188 10.77363281 -16.3203125 9.66796875 C-16.33078613 8.67821045 -16.34125977 7.68845215 -16.35205078 6.66870117 C-16.125 4.125 -16.125 4.125 -14.125 1.125 C-9.47841093 -0.08172612 -4.77321168 -0.02656704 0 0 Z " fill="#F28023" transform="translate(24.125,11.875)"/>
<path d="M0 0 C7.92 0 15.84 0 24 0 C22.09442006 3.81115988 20.46226566 5.79515686 17.5 8.765625 C16.1696875 10.09980469 16.1696875 10.09980469 14.8125 11.4609375 C13.884375 12.38132812 12.95625 13.30171875 12 14.25 C11.071875 15.18585937 10.14375 16.12171875 9.1875 17.0859375 C8.300625 17.97023438 7.41375 18.85453125 6.5 19.765625 C5.6853125 20.57805664 4.870625 21.39048828 4.03125 22.22753906 C2 24 2 24 0 24 C0 16.08 0 8.16 0 0 Z " fill="#3A3177" transform="translate(37,42)"/>
<path d="M0 0 C0.99 0.495 0.99 0.495 2 1 C2.29837403 4.37653644 2.41601614 7.71077953 2.47851562 11.09765625 C2.58397335 15.35025986 2.58397335 15.35025986 4.53515625 19.0078125 C5.01855469 19.33523437 5.50195312 19.66265625 6 20 C6.04898437 19.22914062 6.09796875 18.45828125 6.1484375 17.6640625 C6.26058594 16.15972656 6.26058594 16.15972656 6.375 14.625 C6.44460937 13.62726563 6.51421875 12.62953125 6.5859375 11.6015625 C7 9 7 9 9 7 C11.68839385 6.73008094 14.29141936 6.91262643 17 7 C17.33 8.32 17.66 9.64 18 11 C18.66 11 19.32 11 20 11 C20 13.64 20 16.28 20 19 C23.16948699 17.34412478 23.16948699 17.34412478 23.73046875 14.6171875 C23.88128906 13.71226563 24.03210938 12.80734375 24.1875 11.875 C24.34605469 10.96492188 24.50460938 10.05484375 24.66796875 9.1171875 C24.83232422 8.06917969 24.83232422 8.06917969 25 7 C25.33 7 25.66 7 26 7 C26.35892545 12.04489655 26.58426255 15.85234141 24.25 20.4375 C19.58082798 25.75516813 19.58082798 25.75516813 15.95703125 26.31640625 C11.89958472 26.52709443 9.3566877 26.1651332 5.625 24.4375 C1.1163294 20.2508773 0.10301493 17.22054399 -0.17578125 11.2109375 C-0.21569853 7.46980154 -0.12991948 3.73879397 0 0 Z " fill="#E08838" transform="translate(11,67)"/>
<path d="M0 0 C0.02888514 3.14581423 0.04675923 6.29159469 0.0625 9.4375 C0.07087891 10.33533203 0.07925781 11.23316406 0.08789062 12.15820312 C0.09272461 13.43920898 0.09272461 13.43920898 0.09765625 14.74609375 C0.10551147 15.93223267 0.10551147 15.93223267 0.11352539 17.14233398 C0 19 0 19 -1 20 C-2.56172745 20.08685603 -4.12729344 20.10702219 -5.69140625 20.09765625 C-6.63564453 20.09443359 -7.57988281 20.09121094 -8.55273438 20.08789062 C-10.04256836 20.07532227 -10.04256836 20.07532227 -11.5625 20.0625 C-12.55958984 20.05798828 -13.55667969 20.05347656 -14.58398438 20.04882812 C-17.05604849 20.03700007 -19.52799518 20.02051849 -22 20 C-22 15.47068913 -19.27139209 13.81674358 -16.20117188 10.69335938 C-15.41291016 9.90767578 -14.62464844 9.12199219 -13.8125 8.3125 C-13.04357422 7.51521484 -12.27464844 6.71792969 -11.48242188 5.89648438 C-10.73154297 5.14302734 -9.98066406 4.38957031 -9.20703125 3.61328125 C-8.5210083 2.92016846 -7.83498535 2.22705566 -7.12817383 1.51293945 C-4.55390887 -0.31713052 -3.09135093 -0.31207024 0 0 Z " fill="#EC8125" transform="translate(62,47)"/>
<path d="M0 0 C4.95 0 9.9 0 15 0 C15.2475 3.526875 15.2475 3.526875 15.5 7.125 C15.55220703 7.83285645 15.60441406 8.54071289 15.65820312 9.27001953 C16.45055627 21.26536571 16.02402889 33.35156023 15.73754883 45.36279297 C15.70378942 46.88871799 15.67592717 48.41478338 15.65356445 49.94091797 C15.62009037 52.18249442 15.56792222 54.42295493 15.51171875 56.6640625 C15.48553467 57.97842285 15.45935059 59.2927832 15.43237305 60.64697266 C14.98709834 64.10005163 14.36584422 65.51572586 12 68 C10.68 67.67 9.36 67.34 8 67 C9.28062485 65.2925002 10.61767557 63.62626404 12 62 C12.66 62 13.32 62 14 62 C14 47.15 14 32.3 14 17 C12.02 17 10.04 17 8 17 C4.67254122 14.48592003 3.21524269 12.97837587 2.3125 8.875 C2.209375 7.92625 2.10625 6.9775 2 6 C1.34 5.01 0.68 4.02 0 3 C0 2.01 0 1.02 0 0 Z " fill="#FBFBF2" transform="translate(49,11)"/>
<path d="M0 0 C13.86 0 27.72 0 42 0 C42 1.98 42 3.96 42 6 C41.67 6 41.34 6 41 6 C41 4.35 41 2.7 41 1 C40.09233887 1.06058594 39.18467773 1.12117187 38.24951172 1.18359375 C34.86142878 1.40880187 31.47323829 1.63223571 28.08496094 1.85449219 C26.6223493 1.95079317 25.15978316 2.04778803 23.69726562 2.14550781 C21.58735738 2.28636 19.47729464 2.42466339 17.3671875 2.5625 C16.09987793 2.64628906 14.83256836 2.73007813 13.52685547 2.81640625 C10.3424276 2.98217461 7.18782245 3.03432379 4 3 C2.98412022 6.04763934 2.80195594 8.34718967 2.68359375 11.54296875 C2.64169922 12.61611328 2.59980469 13.68925781 2.55664062 14.79492188 C2.51732422 15.91447266 2.47800781 17.03402344 2.4375 18.1875 C2.39431641 19.31865234 2.35113281 20.44980469 2.30664062 21.61523438 C2.20050901 24.41003354 2.09845615 27.20492162 2 30 C2.99 30.33 3.98 30.66 5 31 C5 39.58 5 48.16 5 57 C1 55 1 55 0 54 C-0.09353163 52.31198015 -0.11744791 50.62004793 -0.11352539 48.92944336 C-0.11344986 47.84839828 -0.11337433 46.76735321 -0.11329651 45.65354919 C-0.10813522 44.4775264 -0.10297394 43.3015036 -0.09765625 42.08984375 C-0.0962413 40.89267227 -0.09482635 39.69550079 -0.09336853 38.46205139 C-0.08774979 34.62050934 -0.07519411 30.77902457 -0.0625 26.9375 C-0.05748741 24.34049563 -0.05292409 21.74349035 -0.04882812 19.14648438 C-0.03862313 12.76428284 -0.01905136 6.3822059 0 0 Z " fill="#DA914B" transform="translate(6,10)"/>
<path d="M0 0 C0.99 0 1.98 0 3 0 C2.67 2.31 2.34 4.62 2 7 C0.68 7 -0.64 7 -2 7 C-2 6.01 -2 5.02 -2 4 C-2.99 4 -3.98 4 -5 4 C-4.85962479 5.81293089 -4.71255111 7.6253443 -4.5625 9.4375 C-4.48128906 10.44683594 -4.40007813 11.45617187 -4.31640625 12.49609375 C-4.26788532 14.93640779 -4.26788532 14.93640779 -3 16 C-2.67 14.02 -2.34 12.04 -2 10 C-0.35 10.33 1.3 10.66 3 11 C2.125 17.875 2.125 17.875 1 19 C-1.69654854 19.07319621 -4.36691458 19.09242537 -7.0625 19.0625 C-7.82111328 19.05798828 -8.57972656 19.05347656 -9.36132812 19.04882812 C-11.24091871 19.0370068 -13.12046899 19.01907078 -15 19 C-16.01365935 13.55656946 -16.07465488 8.5244609 -16 3 C-8.08 2.505 -8.08 2.505 0 2 C0 1.34 0 0.68 0 0 Z " fill="#EBAF6C" transform="translate(31,17)"/>
<path d="M0 0 C0.33 0 0.66 0 1 0 C1.29712937 8.2370863 0.39733587 15.87798524 -1 24 C-6.94 24.33 -12.88 24.66 -19 25 C-17.68 24.34 -16.36 23.68 -15 23 C-14.7525 21.515 -14.7525 21.515 -14.5 20 C-14.2525 18.515 -14.2525 18.515 -14 17 C-11.9375 15.625 -11.9375 15.625 -10 15 C-10 13.02 -10 11.04 -10 9 C-8 8 -8 8 -4.875 8.9375 C-3.451875 9.4634375 -3.451875 9.4634375 -2 10 C-2 7.69 -2 5.38 -2 3 C-1.34 3 -0.68 3 0 3 C0 2.01 0 1.02 0 0 Z " fill="#F0821F" transform="translate(36,29)"/>
<path d="M0 0 C1.65 0 3.3 0 5 0 C4.95875 1.27875 4.9175 2.5575 4.875 3.875 C4.86677618 9.05600773 5.64125611 14.00140935 7 19 C7.33 19.33 7.66 19.66 8 20 C8 22.31 8 24.62 8 27 C12.62 27 17.24 27 22 27 C22 27.33 22 27.66 22 28 C24.97 28.33 27.94 28.66 31 29 C31 37.58 31 46.16 31 55 C30.01 54.505 30.01 54.505 29 54 C29.33 47.73 29.66 41.46 30 35 C28.68 34.67 27.36 34.34 26 34 C26.99 32.68 27.98 31.36 29 30 C21.08 30 13.16 30 5 30 C5 33.96 5 37.92 5 42 C0.71 42 -3.58 42 -8 42 C-8 41.67 -8 41.34 -8 41 C-4.37 41 -0.74 41 3 41 C2.979375 39.411875 2.95875 37.82375 2.9375 36.1875 C2.89664697 33.04181692 2.99503148 31.01490557 4 28 C4.3479529 22.91826926 4.39107483 18.26013002 2.875 13.375 C1.69713393 8.83180229 2.69572409 5.42450521 4 1 C2.68 0.67 1.36 0.34 0 0 Z " fill="#E98434" transform="translate(32,12)"/>
<path d="M0 0 C1.79133978 -0.05391993 3.58313899 -0.09275571 5.375 -0.125 C6.37273438 -0.14820313 7.37046875 -0.17140625 8.3984375 -0.1953125 C11 0 11 0 13 2 C12.67 2.99 12.34 3.98 12 5 C11.34 5 10.68 5 10 5 C9.67 6.32 9.34 7.64 9 9 C8.34 9 7.68 9 7 9 C6.67 8.34 6.34 7.68 6 7 C5.67 8.98 5.34 10.96 5 13 C4.01 13 3.02 13 2 13 C1.67 14.32 1.34 15.64 1 17 C-0.32 17.33 -1.64 17.66 -3 18 C-3 14.04 -3 10.08 -3 6 C-2.34 5.67 -1.68 5.34 -1 5 C-0.34444881 2.47266765 -0.34444881 2.47266765 0 0 Z " fill="#2D3091" transform="translate(41,44)"/>
<path d="M0 0 C0 1.32 0 2.64 0 4 C2.31 3.01 4.62 2.02 7 1 C7 2.98 7 4.96 7 7 C5.35 7.66 3.7 8.32 2 9 C2 9.66 2 10.32 2 11 C-0.64 11 -3.28 11 -6 11 C-6 10.01 -6 9.02 -6 8 C-7.65 7.67 -9.3 7.34 -11 7 C-11.33 5.35 -11.66 3.7 -12 2 C-7.82262526 0.40861915 -4.46839215 -0.21278058 0 0 Z " fill="#F6A924" transform="translate(52,68)"/>
<path d="M0 0 C0.33 0 0.66 0 1 0 C1.1731634 2.2078334 1.33805976 4.41631504 1.5 6.625 C1.5928125 7.85476562 1.685625 9.08453125 1.78125 10.3515625 C2.43021895 21.6541184 2.00739704 33.04888317 1.73754883 44.36279297 C1.70378942 45.88871799 1.67592717 47.41478338 1.65356445 48.94091797 C1.62009037 51.18249442 1.56792222 53.42295493 1.51171875 55.6640625 C1.48553467 56.97842285 1.45935059 58.2927832 1.43237305 59.64697266 C0.98709834 63.10005163 0.36584422 64.51572586 -2 67 C-3.32 66.67 -4.64 66.34 -6 66 C-4.71937515 64.2925002 -3.38232443 62.62626404 -2 61 C-1.34 61 -0.68 61 0 61 C0 46.15 0 31.3 0 16 C-1.98 16 -3.96 16 -6 16 C-8.21436726 14.26970372 -9.35157314 12.32719086 -11 10 C-8.525 10.99 -8.525 10.99 -6 12 C-6 12.66 -6 13.32 -6 14 C-3.03 14.495 -3.03 14.495 0 15 C0 10.05 0 5.1 0 0 Z " fill="#FEE1B9" transform="translate(63,12)"/>
<path d="M0 0 C0.33 0 0.66 0 1 0 C0.67 2.97 0.34 5.94 0 9 C2.31 9.66 4.62 10.32 7 11 C5 14 5 14 1.5 14.75 C-2 15 -2 15 -4 14 C-4 15.98 -4 17.96 -4 20 C-4.66 20 -5.32 20 -6 20 C-7.76622181 8.05614358 -7.76622181 8.05614358 -4.6875 3.8125 C-3.3571875 2.9153125 -3.3571875 2.9153125 -2 2 C-1.34 1.34 -0.68 0.68 0 0 Z " fill="#F67F1F" transform="translate(20,58)"/>
<path d="M0 0 C0.66 0 1.32 0 2 0 C2.33 3.3 2.66 6.6 3 10 C3.99 10 4.98 10 6 10 C6.226875 9.278125 6.45375 8.55625 6.6875 7.8125 C8.26335128 4.43567583 10.20876616 2.44232961 13 0 C13.66 0 14.32 0 15 0 C15 3.3 15 6.6 15 10 C15.66 10.33 16.32 10.66 17 11 C16.01 11.33 15.02 11.66 14 12 C14 11.34 14 10.68 14 10 C13.34 10 12.68 10 12 10 C12 9.01 12 8.02 12 7 C11.01 7.33 10.02 7.66 9 8 C8.26676204 10.01508358 8.26676204 10.01508358 8 12 C1.375 13.25 1.375 13.25 -2 11 C-1.85892253 9.54119891 -1.71197585 8.08296449 -1.5625 6.625 C-1.48128906 5.81289063 -1.40007813 5.00078125 -1.31640625 4.1640625 C-1 2 -1 2 0 0 Z " fill="#E28735" transform="translate(22,56)"/>
<path d="M0 0 C1.43110959 2.82998698 2.8071805 5.67793954 4.125 8.5625 C4.47820313 9.32691406 4.83140625 10.09132813 5.1953125 10.87890625 C6 13 6 13 6 16 C6.66 16 7.32 16 8 16 C8 16.66 8 17.32 8 18 C8.99 18.33 9.98 18.66 11 19 C11 19.66 11 20.32 11 21 C11.66 21 12.32 21 13 21 C13 21.66 13 22.32 13 23 C9.7 23 6.4 23 3 23 C2.855625 21.865625 2.71125 20.73125 2.5625 19.5625 C2.38828522 16.19222799 2.38828522 16.19222799 1 15 C0.57531918 13.42926271 0.2094946 11.84238275 -0.125 10.25 C-0.31320313 9.38890625 -0.50140625 8.5278125 -0.6953125 7.640625 C-1.01911595 4.83432846 -0.69531764 2.72251133 0 0 Z " fill="#EF8518" transform="translate(37,16)"/>
<path d="M0 0 C1.24546405 2.49092811 0.7767578 3.41080733 0 6 C-1.32 6.33 -2.64 6.66 -4 7 C-4.79953138 10.28696233 -5.09658936 11.71023192 -4 15 C-4.9375 17.1875 -4.9375 17.1875 -6 19 C-7.65 19 -9.3 19 -11 19 C-11 18.34 -11 17.68 -11 17 C-13.31 17.66 -15.62 18.32 -18 19 C-12.44964797 12.21623641 -6.23557973 6.14477032 0 0 Z " fill="#F18125" transform="translate(57,47)"/>
<path d="M0 0 C0.33 0 0.66 0 1 0 C1.00364563 0.6573262 1.00729126 1.3146524 1.01104736 1.99189758 C1.05279419 8.8213766 1.1220846 15.65017866 1.20751953 22.47924805 C1.23577956 25.02930945 1.25696888 27.57945926 1.27099609 30.12963867 C1.29235528 33.79131506 1.33897172 37.45192264 1.390625 41.11328125 C1.39185364 42.2571077 1.39308228 43.40093414 1.39434814 44.579422 C1.42392609 46.17073189 1.42392609 46.17073189 1.45410156 47.79418945 C1.46298401 48.72906693 1.47186646 49.6639444 1.48101807 50.62715149 C2.15713693 53.71844914 3.46538204 54.24824788 6 56 C6.50390625 59.29296875 6.50390625 59.29296875 6.5625 63.1875 C6.74764861 69.0453768 7.50009074 73.67410637 10 79 C8.68 78.67 7.36 78.34 6 78 C5.85304688 76.15535156 5.85304688 76.15535156 5.703125 74.2734375 C5.55297377 72.64054288 5.40188228 71.00773452 5.25 69.375 C5.1571875 68.16263672 5.1571875 68.16263672 5.0625 66.92578125 C4.94648438 65.73662109 4.94648438 65.73662109 4.828125 64.5234375 C4.7652832 63.80075684 4.70244141 63.07807617 4.63769531 62.33349609 C4.111785 59.79508423 4.111785 59.79508423 1.97265625 57.4921875 C-1.31578839 52.79156768 -0.48933283 47.10093664 -0.390625 41.6015625 C-0.38496521 40.41146576 -0.37930542 39.22136902 -0.37347412 37.99520874 C-0.35113451 34.20472514 -0.30093963 30.41519655 -0.25 26.625 C-0.22993201 24.05079493 -0.21168177 21.476575 -0.1953125 18.90234375 C-0.15127745 12.60123822 -0.08438805 6.30068735 0 0 Z " fill="#FEE6C1" transform="translate(5,11)"/>
<path d="M0 0 C4.29 0 8.58 0 13 0 C13 0.66 13 1.32 13 2 C11.32278959 3.56958193 9.53205886 4.9480525 7.7265625 6.3671875 C5.88083002 7.90852345 5.88083002 7.90852345 5.0234375 10.1328125 C4.68570312 10.74898437 4.34796875 11.36515625 4 12 C2.68 12.33 1.36 12.66 0 13 C0 8.71 0 4.42 0 0 Z " fill="#FBF3DD" transform="translate(24,54)"/>
<path d="M0 0 C4.29 0 8.58 0 13 0 C11.66415278 4.00754167 9.23106172 5.37476236 6 8 C5.67 8.66 5.34 9.32 5 10 C4.34 10 3.68 10 3 10 C2.67 10.99 2.34 11.98 2 13 C1.34 13 0.68 13 0 13 C0 8.71 0 4.42 0 0 Z " fill="#FBD8A6" transform="translate(11,41)"/>
<path d="M0 0 C4.29 0 8.58 0 13 0 C13 0.66 13 1.32 13 2 C12.34 2 11.68 2 11 2 C11 2.66 11 3.32 11 4 C6.52941176 8 6.52941176 8 4 8 C3.34 9.65 2.68 11.3 2 13 C1.34 13 0.68 13 0 13 C0 12.34 0 11.68 0 11 C-0.66 10.67 -1.32 10.34 -2 10 C-1.34 10 -0.68 10 0 10 C0 6.7 0 3.4 0 0 Z " fill="#F7A12D" transform="translate(11,54)"/>
<path d="M0 0 C1.32 0 2.64 0 4 0 C4.02888514 3.14581423 4.04675923 6.29159469 4.0625 9.4375 C4.07087891 10.33533203 4.07925781 11.23316406 4.08789062 12.15820312 C4.09272461 13.43920898 4.09272461 13.43920898 4.09765625 14.74609375 C4.10551147 15.93223267 4.10551147 15.93223267 4.11352539 17.14233398 C4 19 4 19 3 20 C1.43827255 20.08685603 -0.12729344 20.10702219 -1.69140625 20.09765625 C-2.63564453 20.09443359 -3.57988281 20.09121094 -4.55273438 20.08789062 C-6.04256836 20.07532227 -6.04256836 20.07532227 -7.5625 20.0625 C-8.55958984 20.05798828 -9.55667969 20.05347656 -10.58398438 20.04882812 C-13.05604849 20.03700007 -15.52799518 20.02051849 -18 20 C-17.01 18.515 -17.01 18.515 -16 17 C-14.68 17 -13.36 17 -12 17 C-12 17.66 -12 18.32 -12 19 C-9.58414426 18.96906827 -9.58414426 18.96906827 -7 18 C-5.14083176 15.03292954 -5.14083176 15.03292954 -4 12 C-3.01 12.33 -2.02 12.66 -1 13 C-0.67 13.99 -0.34 14.98 0 16 C0.99 16.33 1.98 16.66 3 17 C3 11.72 3 6.44 3 1 C2.01 0.67 1.02 0.34 0 0 Z " fill="#E7872E" transform="translate(58,47)"/>
<path d="M0 0 C1.66588042 1.63330734 3.17804644 3.22598202 4.625 5.0625 C8.05355712 7.85948081 11.70405221 8.30236745 16 9 C16 9.33 16 9.66 16 10 C14.783125 10.020625 13.56625 10.04125 12.3125 10.0625 C11.62800781 10.07410156 10.94351563 10.08570312 10.23828125 10.09765625 C7.74507785 9.98887774 5.43287087 9.54111139 3 9 C2.90525391 10.03060547 2.90525391 10.03060547 2.80859375 11.08203125 C1.82730157 18.30227578 1.82730157 18.30227578 -0.62109375 20.3671875 C-2.5 21.1875 -2.5 21.1875 -6 22 C-6.66 21.67 -7.32 21.34 -8 21 C-7.21625 20.4225 -6.4325 19.845 -5.625 19.25 C-2.11075518 16.23779015 -1.17491728 14.36633501 -0.5859375 9.765625 C-0.51632813 8.60546875 -0.44671875 7.4453125 -0.375 6.25 C-0.30023438 5.07953125 -0.22546875 3.9090625 -0.1484375 2.703125 C-0.09945312 1.81109375 -0.05046875 0.9190625 0 0 Z " fill="#FCF0D1" transform="translate(37,71)"/>
<path d="M0 0 C7.92 0 15.84 0 24 0 C22 4 22 4 20 5 C20 3.68 20 2.36 20 1 C11.585 1.495 11.585 1.495 3 2 C2.34 7.94 1.68 13.88 1 20 C2.98 19.34 4.96 18.68 7 18 C5.38405168 20.04119788 3.7143618 22.04072937 2 24 C1.34 24 0.68 24 0 24 C0 16.08 0 8.16 0 0 Z " fill="#4D2A55" transform="translate(37,42)"/>
<path d="M0 0 C3.375 -0.1875 3.375 -0.1875 7 0 C9 3 9 3 8.6875 5.625 C8 8 8 8 7 9 C4.66702567 9.04092937 2.33294775 9.04241723 0 9 C-1.125 2.25 -1.125 2.25 0 0 Z " fill="#55294C" transform="translate(20,76)"/>
<path d="M0 0 C0.66 0.33 1.32 0.66 2 1 C1.77211278 2.96102954 1.51694943 4.91890505 1.25 6.875 C1.11078125 7.96554688 0.9715625 9.05609375 0.828125 10.1796875 C0 13 0 13 -2.078125 14.3828125 C-2.71234375 14.58648437 -3.3465625 14.79015625 -4 15 C-4 12.36 -4 9.72 -4 7 C-4.66 7 -5.32 7 -6 7 C-6.33 5.68 -6.66 4.36 -7 3 C-5.68 3 -4.36 3 -3 3 C-1.2488427 1.5833253 -1.2488427 1.5833253 0 0 Z " fill="#EC8326" transform="translate(35,71)"/>
<path d="M0 0 C8.58 0 17.16 0 26 0 C26 8.58 26 17.16 26 26 C25.34 25.67 24.68 25.34 24 25 C24.33 18.73 24.66 12.46 25 6 C23.68 5.67 22.36 5.34 21 5 C21.99 3.68 22.98 2.36 24 1 C16.08 1 8.16 1 0 1 C0 0.67 0 0.34 0 0 Z " fill="#B37651" transform="translate(37,41)"/>
<path d="M0 0 C2.01822917 0.06510417 4.03645833 0.13020833 6.0546875 0.1953125 C7.48413695 2.54969983 8.14130011 3.67563683 7.6796875 6.4453125 C7.4734375 7.0228125 7.2671875 7.6003125 7.0546875 8.1953125 C6.3946875 6.2153125 5.7346875 4.2353125 5.0546875 2.1953125 C2.7446875 2.1953125 0.4346875 2.1953125 -1.9453125 2.1953125 C-1.9453125 5.1653125 -1.9453125 8.1353125 -1.9453125 11.1953125 C2.70055642 10.71046974 2.70055642 10.71046974 7.0546875 9.1953125 C6.7246875 10.5153125 6.3946875 11.8353125 6.0546875 13.1953125 C0 13.390625 0 13.390625 -1.9453125 13.1953125 C-3.9453125 11.1953125 -3.9453125 11.1953125 -4.2109375 9.1015625 C-4.20320313 7.91046875 -4.20320313 7.91046875 -4.1953125 6.6953125 C-4.20046875 5.90125 -4.205625 5.1071875 -4.2109375 4.2890625 C-3.84652997 1.41667373 -2.92959728 0.29413627 0 0 Z " fill="#B56949" transform="translate(21.9453125,73.8046875)"/>
<path d="M0 0 C0.33 0.99 0.66 1.98 1 3 C4.465 2.505 4.465 2.505 8 2 C8 4.31 8 6.62 8 9 C7.443125 8.814375 6.88625 8.62875 6.3125 8.4375 C3.600867 7.92448835 1.65628961 8.3359276 -1 9 C-1.80967438 6.08517222 -2.21845993 4.53886783 -1.0625 1.6875 C-0.711875 1.130625 -0.36125 0.57375 0 0 Z " fill="#F6AB1E" transform="translate(53,28)"/>
<path d="M0 0 C0.33 0 0.66 0 1 0 C1.36076925 5.07081218 1.5619882 8.87602359 -0.75 13.5 C-2.80426769 15.78251966 -4.14101815 16.97893505 -7 18 C-8.33500455 12.65998179 -7.512545 9.16044765 -6 4 C-5.67 4 -5.34 4 -5 4 C-5 6.64 -5 9.28 -5 12 C-1.83051301 10.34412478 -1.83051301 10.34412478 -1.26953125 7.6171875 C-1.11871094 6.71226563 -0.96789063 5.80734375 -0.8125 4.875 C-0.65394531 3.96492188 -0.49539062 3.05484375 -0.33203125 2.1171875 C-0.22246094 1.41851562 -0.11289062 0.71984375 0 0 Z " fill="#E1843D" transform="translate(36,74)"/>
<path d="M0 0 C0.33 0 0.66 0 1 0 C1.7609241 9.70178229 2.13500337 19.26475712 2 29 C1.67 29 1.34 29 1 29 C0.67 25.04 0.34 21.08 0 17 C-1.60875 16.6596875 -1.60875 16.6596875 -3.25 16.3125 C-7.37218701 14.86973455 -8.64414523 13.58089925 -11 10 C-8.525 10.99 -8.525 10.99 -6 12 C-6 12.66 -6 13.32 -6 14 C-3.03 14.495 -3.03 14.495 0 15 C0 10.05 0 5.1 0 0 Z " fill="#F7EFD7" transform="translate(63,12)"/>
<path d="M0 0 C2.64 0.33 5.28 0.66 8 1 C8 4.63 8 8.26 8 12 C5.36 12 2.72 12 0 12 C0 11.01 0 10.02 0 9 C2 7.3125 2 7.3125 4 6 C4.66 6.33 5.32 6.66 6 7 C6.33 5.35 6.66 3.7 7 2 C4.69 2.33 2.38 2.66 0 3 C0 2.01 0 1.02 0 0 Z " fill="#F6A738" transform="translate(54,28)"/>
<path d="M0 0 C0.99 0 1.98 0 3 0 C3.33 0.99 3.66 1.98 4 3 C4.99 3 5.98 3 7 3 C7 3.99 7 4.98 7 6 C5.68 6 4.36 6 3 6 C3 8.64 3 11.28 3 14 C1.51171875 12.85546875 1.51171875 12.85546875 0 11 C-0.29296875 8.30078125 -0.29296875 8.30078125 -0.1875 5.3125 C-0.16042969 4.31863281 -0.13335938 3.32476563 -0.10546875 2.30078125 C-0.07066406 1.54152344 -0.03585938 0.78226563 0 0 Z " fill="#D88A3F" transform="translate(26,21)"/>
<path d="M0 0 C2.31 0.33 4.62 0.66 7 1 C7 2.65 7 4.3 7 6 C5.02 6.33 3.04 6.66 1 7 C0.67 7.99 0.34 8.98 0 10 C0 6.7 0 3.4 0 0 Z " fill="#E89D53" transform="translate(15,20)"/>
<path d="M0 0 C0 1.65 0 3.3 0 5 C-2.97 5.66 -5.94 6.32 -9 7 C-9.33 5.35 -9.66 3.7 -10 2 C-6.38026598 0.68373308 -3.90432869 0 0 0 Z " fill="#F4AB1C" transform="translate(50,68)"/>
<path d="M0 0 C-0.8742485 5.33291583 -0.8742485 5.33291583 -2 8 C-4.77430911 9.84953941 -6.64042263 11 -10 11 C-9.67 9.68 -9.34 8.36 -9 7 C-8.34 7 -7.68 7 -7 7 C-6.731875 6.401875 -6.46375 5.80375 -6.1875 5.1875 C-3.37142857 0 -3.37142857 0 0 0 Z " fill="#DE8D43" transform="translate(23,44)"/>
<path d="M0 0 C3.3 0 6.6 0 10 0 C10 1.65 10 3.3 10 5 C7.36 5 4.72 5 2 5 C1.34 3.35 0.68 1.7 0 0 Z " fill="#F2AA35" transform="translate(37,11)"/>
<path d="M0 0 C0.66 0.33 1.32 0.66 2 1 C0.21427748 2.83947337 -1.57802449 4.67157741 -3.375 6.5 C-3.88289063 7.02464844 -4.39078125 7.54929687 -4.9140625 8.08984375 C-6.23832604 9.43153181 -7.61605865 10.71995815 -9 12 C-9.66 12 -10.32 12 -11 12 C-11 11.01 -11 10.02 -11 9 C-10.01 9 -9.02 9 -8 9 C-8 7.02 -8 5.04 -8 3 C-7.34 2.67 -6.68 2.34 -6 2 C-6 2.99 -6 3.98 -6 5 C-5.34 5 -4.68 5 -4 5 C-3.8453125 4.0409375 -3.8453125 4.0409375 -3.6875 3.0625 C-3.460625 2.381875 -3.23375 1.70125 -3 1 C-2.01 0.67 -1.02 0.34 0 0 Z " fill="#482C65" transform="translate(54,48)"/>
<path d="M0 0 C3.3 0.33 6.6 0.66 10 1 C10 2.65 10 4.3 10 6 C8.68 6.33 7.36 6.66 6 7 C5.67 6.34 5.34 5.68 5 5 C5.33 4.34 5.66 3.68 6 3 C3.69 3 1.38 3 -1 3 C-0.67 2.01 -0.34 1.02 0 0 Z " fill="#F38219" transform="translate(12,13)"/>
<path d="M0 0 C0.99 0.495 0.99 0.495 2 1 C2.28891106 3.60913493 2.46803699 6.13268342 2.5625 8.75 C2.75238607 13.24262362 2.95374175 17.60744471 4 22 C1.42466978 19.76058242 0.5726658 18.34789235 0 15 C-0.06898242 12.40626086 -0.09434752 9.84189803 -0.0625 7.25 C-0.05798828 6.55261719 -0.05347656 5.85523437 -0.04882812 5.13671875 C-0.0371002 3.42444197 -0.01916653 1.71220967 0 0 Z " fill="#D79758" transform="translate(11,67)"/>
<path d="M0 0 C0.99 0.33 1.98 0.66 3 1 C3 2.65 3 4.3 3 6 C-2.28 6 -7.56 6 -13 6 C-12.34 5.01 -11.68 4.02 -11 3 C-9.68 3 -8.36 3 -7 3 C-7 3.66 -7 4.32 -7 5 C-4.55519921 4.81171228 -4.55519921 4.81171228 -2 4 C-0.63979849 2.03241727 -0.63979849 2.03241727 0 0 Z " fill="#EA8420" transform="translate(53,61)"/>
<path d="M0 0 C0.33 0 0.66 0 1 0 C1 6.6 1 13.2 1 20 C2.98 19.34 4.96 18.68 7 18 C5.38405168 20.04119788 3.7143618 22.04072937 2 24 C1.34 24 0.68 24 0 24 C0 16.08 0 8.16 0 0 Z " fill="#683642" transform="translate(37,42)"/>
<path d="M0 0 C2.475 0.495 2.475 0.495 5 1 C4.67 3.31 4.34 5.62 4 8 C2.68 8.33 1.36 8.66 0 9 C0 6.03 0 3.06 0 0 Z " fill="#F2BC79" transform="translate(29,27)"/>
<path d="M0 0 C2.31 0 4.62 0 7 0 C6.67 0.66 6.34 1.32 6 2 C4.35 2 2.7 2 1 2 C1.33 3.65 1.66 5.3 2 7 C3.65 7.33 5.3 7.66 7 8 C7 8.99 7 9.98 7 11 C3.76849539 10.03928241 2.24148827 9.30588515 0.125 6.625 C-1 4 -1 4 -0.6875 1.6875 C-0.460625 1.130625 -0.23375 0.57375 0 0 Z " fill="#EFA83D" transform="translate(39,68)"/>
<path d="M0 0 C4.29 0 8.58 0 13 0 C12.67 0.66 12.34 1.32 12 2 C8.37 1.67 4.74 1.34 1 1 C1 3.64 1 6.28 1 9 C2.98 9.495 2.98 9.495 5 10 C4.67 10.66 4.34 11.32 4 12 C2.68 12.33 1.36 12.66 0 13 C0 8.71 0 4.42 0 0 Z " fill="#F6C38F" transform="translate(24,54)"/>
<path d="M0 0 C0.66 0 1.32 0 2 0 C2 4.29 2 8.58 2 13 C1.01 13 0.02 13 -1 13 C-1.02708567 11.39592672 -1.04643483 9.7917215 -1.0625 8.1875 C-1.07410156 7.29417969 -1.08570313 6.40085937 -1.09765625 5.48046875 C-1 3 -1 3 0 0 Z " fill="#E58522" transform="translate(9,51)"/>
<path d="M0 0 C2 0.25 2 0.25 4 1 C4.33 1.99 4.66 2.98 5 4 C4 6 4 6 2.0625 6.6875 C0 7 0 7 -2 6 C-1.125 1.125 -1.125 1.125 0 0 Z " fill="#3B3181" transform="translate(23,77)"/>
<path d="M0 0 C4.70588235 0.70588235 4.70588235 0.70588235 6 2 C6.14115161 4.67058851 6.04247107 7.32432238 6 10 C5.01 9.67 4.02 9.34 3 9 C2.896875 8.05125 2.79375 7.1025 2.6875 6.125 C2.31460705 2.70892499 2.31460705 2.70892499 -1 1 C-0.67 0.67 -0.34 0.34 0 0 Z " fill="#F58116" transform="translate(54,54)"/>
<path d="M0 0 C1.98 0 3.96 0 6 0 C5.67 1.65 5.34 3.3 5 5 C3.35 5.33 1.7 5.66 0 6 C0 4.02 0 2.04 0 0 Z " fill="#FAF7E4" transform="translate(13,43)"/>
<path d="M0 0 C-1.625 2 -1.625 2 -4 4 C-7.25 4.25 -7.25 4.25 -10 4 C-10 3.34 -10 2.68 -10 2 C-10.99 1.67 -11.98 1.34 -13 1 C-11.39796533 0.63631108 -9.79325797 0.28438048 -8.1875 -0.0625 C-7.29417969 -0.25972656 -6.40085937 -0.45695312 -5.48046875 -0.66015625 C-3 -1 -3 -1 0 0 Z " fill="#FFF9E2" transform="translate(59,80)"/>
<path d="M0 0 C0.99 0 1.98 0 3 0 C2.67 2.31 2.34 4.62 2 7 C0.68 7 -0.64 7 -2 7 C-2 6.01 -2 5.02 -2 4 C-4.31 4 -6.62 4 -9 4 C-9 3.67 -9 3.34 -9 3 C-4.545 2.505 -4.545 2.505 0 2 C0 1.34 0 0.68 0 0 Z " fill="#F2A356" transform="translate(31,17)"/>
<path d="M0 0 C0.33 0 0.66 0 1 0 C1.33 2.31 1.66 4.62 2 7 C6.64586892 6.51515724 6.64586892 6.51515724 11 5 C10.67 6.32 10.34 7.64 10 9 C3.9453125 9.1953125 3.9453125 9.1953125 2 9 C0 7 0 7 -0.125 3.375 C-0.08375 2.26125 -0.0425 1.1475 0 0 Z " fill="#BD7652" transform="translate(18,78)"/>
<path d="M0 0 C0.66 0 1.32 0 2 0 C2 3.3 2 6.6 2 10 C2.66 10.33 3.32 10.66 4 11 C3.01 11.33 2.02 11.66 1 12 C1 9.69 1 7.38 1 5 C-0.65 5 -2.3 5 -4 5 C-2.71937515 3.2925002 -1.38232443 1.62626404 0 0 Z " fill="#D48C5E" transform="translate(35,56)"/>
<path d="M0 0 C1.24546405 2.49092811 0.7767578 3.41080733 0 6 C-0.556875 6.061875 -1.11375 6.12375 -1.6875 6.1875 C-4.94987173 7.33373872 -6.68667874 9.49390197 -9 12 C-9.66 11.67 -10.32 11.34 -11 11 C-7.37 7.37 -3.74 3.74 0 0 Z " fill="#C47A56" transform="translate(57,47)"/>
<path d="M0 0 C0 1.98 0 3.96 0 6 C-0.66 6 -1.32 6 -2 6 C-2 6.66 -2 7.32 -2 8 C-3.32 7.67 -4.64 7.34 -6 7 C-6 6.01 -6 5.02 -6 4 C-1.54285714 0 -1.54285714 0 0 0 Z " fill="#F38517" transform="translate(21,58)"/>
<path d="M0 0 C0.99 0 1.98 0 3 0 C3 1.65 3 3.3 3 5 C3.66 5.33 4.32 5.66 5 6 C4.34 6.66 3.68 7.32 3 8 C2.01 8 1.02 8 0 8 C0 5.36 0 2.72 0 0 Z " fill="#352F79" transform="translate(38,54)"/>
<path d="M0 0 C0 1.65 0 3.3 0 5 C-1.98 5 -3.96 5 -6 5 C-6.33 4.01 -6.66 3.02 -7 2 C-2.25 0 -2.25 0 0 0 Z " fill="#EF801E" transform="translate(29,87)"/>
<path d="M0 0 C0.33 0 0.66 0 1 0 C1.55353075 10.55808656 1.55353075 10.55808656 -2 15 C-2.66 14.67 -3.32 14.34 -4 14 C-3.69320312 13.44828125 -3.38640625 12.8965625 -3.0703125 12.328125 C-1.90557059 9.79459879 -1.37942044 7.48828238 -0.875 4.75 C-0.70742188 3.85796875 -0.53984375 2.9659375 -0.3671875 2.046875 C-0.24601562 1.37140625 -0.12484375 0.6959375 0 0 Z " fill="#CF8E4D" transform="translate(36,74)"/>
<path d="M0 0 C0.33 0 0.66 0 1 0 C1 1.65 1 3.3 1 5 C1.66 5 2.32 5 3 5 C3 6.32 3 7.64 3 9 C1.68 9 0.36 9 -1 9 C-1.09765625 2.84765625 -1.09765625 2.84765625 -1 1 C-0.67 0.67 -0.34 0.34 0 0 Z " fill="#E7852F" transform="translate(13,26)"/>
<path d="M0 0 C0.33 0 0.66 0 1 0 C0.25 6.75 0.25 6.75 -2 9 C-4.125 8.625 -4.125 8.625 -6 8 C-4.71937515 6.2925002 -3.38232443 4.62626404 -2 3 C-1.34 3 -0.68 3 0 3 C0 2.01 0 1.02 0 0 Z " fill="#FDECCE" transform="translate(63,70)"/>
<path d="M0 0 C0.66 0.33 1.32 0.66 2 1 C2.99 1.33 3.98 1.66 5 2 C4.67 3.32 4.34 4.64 4 6 C2.68 6.33 1.36 6.66 0 7 C-1.125 2.25 -1.125 2.25 0 0 Z " fill="#FA7C22" transform="translate(52,54)"/>
<path d="M0 0 C0.33 0 0.66 0 1 0 C0.67 2.31 0.34 4.62 0 7 C-2.31 7.66 -4.62 8.32 -7 9 C-6.57847656 8.51789063 -6.15695313 8.03578125 -5.72265625 7.5390625 C-5.17480469 6.90742187 -4.62695312 6.27578125 -4.0625 5.625 C-3.51722656 4.99851562 -2.97195312 4.37203125 -2.41015625 3.7265625 C-0.93041376 2.04367666 -0.93041376 2.04367666 0 0 Z " fill="#F7DDB8" transform="translate(36,84)"/>
<path d="M0 0 C0.66 0.33 1.32 0.66 2 1 C0.625 3 0.625 3 -2 5 C-5.3580469 5.35791096 -8.63536357 5.23115823 -12 5 C-12 4.67 -12 4.34 -12 4 C-9.36 4 -6.72 4 -4 4 C-4 3.34 -4 2.68 -4 2 C-2.125 0.9375 -2.125 0.9375 0 0 Z " fill="#E0B258" transform="translate(58,75)"/>
<path d="M0 0 C0.33 0.99 0.66 1.98 1 3 C2.98 3 4.96 3 7 3 C7 3.66 7 4.32 7 5 C3.7 5 0.4 5 -3 5 C-2.67 4.34 -2.34 3.68 -2 3 C-1.34 3 -0.68 3 0 3 C0 2.01 0 1.02 0 0 Z " fill="#EF8125" transform="translate(15,35)"/>
<path d="M0 0 C0.33 0 0.66 0 1 0 C1 2.97 1 5.94 1 9 C0.01 9 -0.98 9 -2 9 C-2 7.02 -2 5.04 -2 3 C-1.34 3 -0.68 3 0 3 C0 2.01 0 1.02 0 0 Z " fill="#E88519" transform="translate(36,29)"/>
<path d="M0 0 C2.64 0.33 5.28 0.66 8 1 C8 3.97 8 6.94 8 10 C7.67 10 7.34 10 7 10 C7 7.36 7 4.72 7 2 C4.69 2.33 2.38 2.66 0 3 C0 2.01 0 1.02 0 0 Z " fill="#E9AB3B" transform="translate(54,28)"/>
<path d="M0 0 C0.33 0 0.66 0 1 0 C1 1.65 1 3.3 1 5 C-1.31 5.66 -3.62 6.32 -6 7 C-5.02433888 5.83040013 -4.044375 4.66438823 -3.0625 3.5 C-2.51722656 2.8503125 -1.97195312 2.200625 -1.41015625 1.53125 C-0.71212891 0.77328125 -0.71212891 0.77328125 0 0 Z " fill="#D27749" transform="translate(45,59)"/>
<path d="M0 0 C1.65 0 3.3 0 5 0 C4.67 1.32 4.34 2.64 4 4 C2.35 4 0.7 4 -1 4 C-0.67 2.68 -0.34 1.36 0 0 Z " fill="#FC7C13" transform="translate(23,46)"/>
<path d="M0 0 C1.32 0.33 2.64 0.66 4 1 C4 1.99 4 2.98 4 4 C1.69 4 -0.62 4 -3 4 C-2.67 3.34 -2.34 2.68 -2 2 C-1.34 2 -0.68 2 0 2 C0 1.34 0 0.68 0 0 Z " fill="#F27F2B" transform="translate(26,42)"/>
<path d="M0 0 C2.97 0 5.94 0 9 0 C7 4 7 4 5 5 C5 3.68 5 2.36 5 1 C3.35 1 1.7 1 0 1 C0 0.67 0 0.34 0 0 Z " fill="#52313D" transform="translate(52,42)"/>
<path d="M0 0 C3 3 3 3 4 6 C3.01 6 2.02 6 1 6 C0.67 6.99 0.34 7.98 0 9 C0 6.03 0 3.06 0 0 Z " fill="#FDDAA5" transform="translate(37,71)"/>
<path d="M0 0 C0.99 0 1.98 0 3 0 C3.33 1.32 3.66 2.64 4 4 C2.35 4 0.7 4 -1 4 C-0.67 2.68 -0.34 1.36 0 0 Z " fill="#F7A635" transform="translate(47,75)"/>
<path d="M0 0 C0.66 0 1.32 0 2 0 C2 0.66 2 1.32 2 2 C3.65 2.33 5.3 2.66 7 3 C7 3.99 7 4.98 7 6 C2.32307692 4.52307692 2.32307692 4.52307692 0.6875 1.875 C0.460625 1.25625 0.23375 0.6375 0 0 Z " fill="#E1AF4F" transform="translate(39,73)"/>
<path d="M0 0 C0 2.31 0 4.62 0 7 C-0.66 7 -1.32 7 -2 7 C-2.33 5.02 -2.66 3.04 -3 1 C-1 0 -1 0 0 0 Z " fill="#FDA51C" transform="translate(16,55)"/>
<path d="M0 0 C0.99 0 1.98 0 3 0 C3 0.99 3 1.98 3 3 C2.34 3 1.68 3 1 3 C0.67 4.32 0.34 5.64 0 7 C-0.66 7 -1.32 7 -2 7 C-1.34 4.69 -0.68 2.38 0 0 Z " fill="#392D8D" transform="translate(50,46)"/>
<path d="M0 0 C0.99 0 1.98 0 3 0 C2.67 1.65 2.34 3.3 2 5 C1.01 5 0.02 5 -1 5 C-0.67 3.35 -0.34 1.7 0 0 Z " fill="#F38418" transform="translate(27,15)"/>
</svg>
