<svg xmlns="http://www.w3.org/2000/svg" viewBox="0 0 32 32">
  <path fill="#25D366" d="M16 3C9.4 3 4 8.2 4 14.7c0 2.6.9 5 2.4 7L4 29l7.5-2.3c2 .9 4.2 1.4 6.5 1.4
    6.6 0 12-5.2 12-11.7C30 8.2 22.6 3 16 3z"></path>
  <path fill="#fff" d="M22.5 18.3c-.3-.2-1.9-.9-2.2-1s-.6-.2-.9.2-.9 1-.9 1-.4.4-.7.2
    c-1.9-.9-3.2-2.8-3.3-3-.1-.2 0-.5.2-.6l.6-.7c.2-.2.2-.4.3-.6
    .1-.2 0-.4-.1-.6s-.9-2.1-1.3-2.9c-.4-.8-.7-.7-.9-.7h-.7
    c-.2 0-.6.1-.9.4s-1.2 1.1-1.2 2.7c0 1.6 1.2 3.2 1.4 3.4
    .2.2 2.3 3.5 5.6 4.9.8.3 1.4.5 1.9.6.8.2 1.6.2 2.2.1
    .7-.1 1.9-.8 2.2-1.5.3-.7.3-1.3.2-1.5-.1-.2-.3-.3-.6-.5z"></path>
</svg>
