<svg xmlns="http://www.w3.org/2000/svg" viewBox="0 0 24 24" fill="#8B5CF6"> <path fill-rule="evenodd" d="M11.54 22.351l.07.04.028.016a.76.76 0 00.723 0l.028-.015.071-.041a22.525 22.525 0 005.162-5.8c1.586-2.502 2.553-5.228 2.553-8.182C22 5.054 17.525.5 12 .5S2 5.054 2 9.322c0 2.954.967 5.68 2.553 8.182a22.525 22.525 0 005.162 5.8l.071.041.028.016c.205.113.46.113.665 0l.028-.016.07-.04zm.5-1.428a20.473 20.473 0 00-4.682-5.292 2.25 2.25 0 01-.645-1.577V9.322c0-3.309 2.686-6 6-6s6 2.691 6 6v.733c0 .64-.231 1.234-.645 1.577a20.473 20.473 0 00-4.682 5.292z" clip-rule="evenodd" />
  <path d="M12 11.25a2.25 2.25 0 100-4.5 2.25 2.25 0 000 4.5z" />
</svg>
